<?xml version="1.0" encoding="UTF-8"?><svg id="Layer_1" xmlns="http://www.w3.org/2000/svg" viewBox="0 0 600 491.6286"><defs><style>.cls-1{fill:#e7e5db;}</style></defs><path class="cls-1" d="M590.90499,369.60646c2.03205,40.98506,5.07992,81.65965,9.09501,122.02217-72.64625-8.91477-146.45617-13.50378-221.23289-13.50378-37.38006,0-74.54727,1.14745-111.41942,3.40875-36.88855,2.2613-73.49844,5.63725-109.81347,10.09503C392.81121,305.5467,600-.00002,600-.00002c-8.02997,80.70904-12.15969,162.72876-12.15969,245.81432,0,41.54198,1.03243,82.8231,3.06468,123.79216Z"/><path class="cls-1" d="M378.76711,13.50296C453.54383,13.50296,527.35375,8.93075,600-.00002L169.03836,189.91555C167.62905,125.8894,163.76139,62.5514,157.53422-.00002c72.62985,8.93077,146.45617,13.50298,221.23289,13.50298Z"/><path class="cls-1" d="M169.6775,245.8143c0,83.08476-4.11331,165.10529-12.14328,245.81432,0,0-30.64497-124.10343-157.53422-227.21501l169.03836-74.49806c.42589,18.5673.63914,37.21622.63914,55.89875Z"/></svg>