<?xml version="1.0" encoding="UTF-8" standalone="no"?>
<!DOCTYPE svg PUBLIC "-//W3C//DTD SVG 1.1//EN" "http://www.w3.org/Graphics/SVG/1.1/DTD/svg11.dtd">
<svg width="100%" height="100%" viewBox="0 0 1436 274" version="1.1" xmlns="http://www.w3.org/2000/svg" xmlns:xlink="http://www.w3.org/1999/xlink" xml:space="preserve" xmlns:serif="http://www.serif.com/" style="fill-rule:evenodd;clip-rule:evenodd;stroke-linejoin:round;stroke-miterlimit:2;">
    <g id="logo-warm-grey" transform="matrix(0.95689,0,0,1.06489,0,0)">
        <rect x="0" y="0" width="1500" height="257.086" style="fill:none;"/>
        <clipPath id="_clip1">
            <rect x="0" y="0" width="1500" height="257.086"/>
        </clipPath>
        <g clip-path="url(#_clip1)">
            <g id="Layer-1" serif:id="Layer 1" transform="matrix(1.04505,0,0,0.939061,0,0)">
                <g>
                    <g transform="matrix(1,0,0,1,241.592,61.4481)">
                        <path d="M0,101.225C0.831,117.982 2.077,134.612 3.719,151.114C-25.983,147.469 -56.16,145.593 -86.733,145.593C-102.016,145.593 -117.212,146.062 -132.287,146.987C-147.369,147.911 -162.337,149.291 -177.184,151.114C-80.991,75.034 3.719,-49.889 3.719,-49.889C0.435,-16.891 -1.253,16.643 -1.253,50.612C-1.253,67.597 -0.831,84.475 0,101.225" style="fill:rgb(231,229,219);fill-rule:nonzero;"/>
                    </g>
                    <g transform="matrix(-0.643708,-0.765271,-0.765271,0.643708,129.374,71.8201)">
                        <path d="M25.486,-54.74C5.806,-78.137 -12.189,-102.434 -28.513,-127.514L25.486,57.309C45.89,40.899 66.724,25.44 87.935,10.925C66.026,-9.448 45.166,-31.344 25.486,-54.74" style="fill:rgb(231,229,219);fill-rule:nonzero;"/>
                    </g>
                    <g transform="matrix(-0.108958,-0.994046,-0.994046,0.108958,-7.68582,120.635)">
                        <path d="M0.127,-77.534C-33.64,-73.833 -66.792,-68.507 -99.236,-61.648C-99.236,-61.648 -47.433,-54.722 0.127,-7.746L22.873,-79.765C15.309,-79.111 7.72,-78.366 0.127,-77.534" style="fill:rgb(231,229,219);fill-rule:nonzero;"/>
                    </g>
                </g>
            </g>
            <g transform="matrix(1.27811,0,0,1.14849,-127.772,492.348)">
                <path d="M405.508,-257.06C432.908,-257.06 454.308,-275.26 454.308,-300.26C454.308,-317.06 442.708,-331.86 420.508,-342.26L401.508,-351.26C380.708,-361.06 372.508,-368.06 372.508,-380.26C372.508,-393.46 384.108,-402.46 400.108,-402.46C419.108,-402.46 432.308,-389.06 445.508,-362.66L446.508,-362.66L445.108,-404.46C427.908,-409.06 417.508,-411.06 402.708,-411.06C376.908,-411.06 357.108,-394.66 357.108,-373.06C357.108,-354.46 369.508,-342.86 390.308,-333.06L409.308,-324.06C428.108,-315.26 438.908,-307.06 438.908,-291.66C438.908,-274.46 425.108,-265.66 410.108,-265.66C388.108,-265.66 370.708,-280.86 357.108,-309.86L356.108,-309.86L357.708,-265.46C371.908,-261.06 386.108,-257.06 405.508,-257.06Z" style="fill:rgb(231,229,219);fill-rule:nonzero;"/>
                <path d="M519.508,-329.06L519.508,-318.86L493.908,-312.86C470.508,-307.46 460.308,-298.46 460.308,-284.26C460.308,-268.46 473.708,-257.06 489.908,-257.06C501.508,-257.06 512.508,-264.26 519.508,-272.26L519.508,-257.66L553.108,-265.66L553.108,-266.66L538.508,-273.66L538.508,-331.26C538.508,-352.06 523.708,-361.06 501.908,-361.06C489.908,-361.06 475.908,-357.86 463.708,-354.26L462.708,-326.46L463.708,-326.46C474.508,-343.06 486.908,-352.86 500.508,-352.86C512.108,-352.86 519.508,-344.66 519.508,-329.06ZM480.508,-286.26C480.508,-295.86 486.708,-302.86 498.708,-305.66L519.508,-310.46L519.508,-279.46C511.308,-273.66 503.708,-270.26 496.508,-270.26C487.108,-270.26 480.508,-276.86 480.508,-286.26Z" style="fill:rgb(231,229,219);fill-rule:nonzero;"/>
                <path d="M554.108,-259.06L605.508,-259.06L605.508,-260.06L589.308,-269.66L589.308,-415.06L555.708,-407.06L555.708,-406.06L570.308,-399.06L570.308,-269.66L554.108,-260.06L554.108,-259.06Z" style="fill:rgb(231,229,219);fill-rule:nonzero;"/>
                <path d="M653.308,-257.06C671.908,-257.06 682.308,-268.26 693.308,-280.26L688.108,-285.06C678.108,-275.66 669.908,-270.86 659.108,-270.86C639.108,-270.86 623.908,-288.66 623.708,-315.46L692.708,-315.46L692.708,-318.66C692.708,-347.46 674.108,-361.06 654.508,-361.06C631.308,-361.06 606.308,-340.06 606.308,-308.06C606.308,-272.66 632.108,-257.06 653.308,-257.06ZM624.308,-324.26C626.908,-342.46 637.908,-352.66 651.108,-352.66C664.108,-352.66 672.308,-343.26 672.308,-328.46C672.308,-327.06 672.308,-325.86 672.108,-324.26L624.308,-324.26Z" style="fill:rgb(231,229,219);fill-rule:nonzero;"/>
                <path d="M736.708,-257.06C757.908,-257.06 773.108,-269.86 773.108,-286.86C773.108,-299.26 767.108,-307.06 752.108,-314.26L736.108,-321.86C722.108,-328.46 717.308,-333.46 717.308,-340.26C717.308,-347.86 723.508,-352.86 733.108,-352.86C745.108,-352.86 756.108,-343.26 766.708,-327.66L767.708,-327.66L766.708,-355.46C755.308,-359.26 745.708,-361.06 735.508,-361.06C716.308,-361.06 702.108,-349.06 702.108,-333.26C702.108,-320.86 709.108,-313.46 724.708,-306.06L740.708,-298.46C753.708,-292.26 757.908,-287.86 757.908,-280.66C757.908,-271.06 749.908,-265.26 738.308,-265.26C724.308,-265.26 712.508,-274.66 701.308,-292.06L700.308,-292.06L701.308,-262.26C711.908,-259.66 724.308,-257.06 736.708,-257.06Z" style="fill:rgb(231,229,219);fill-rule:nonzero;"/>
                <path d="M818.908,-209.06C849.308,-209.06 881.908,-226.46 881.908,-255.26C881.908,-271.06 871.508,-276.66 850.908,-276.66L801.108,-276.66C796.708,-276.66 794.308,-277.86 794.308,-280.46C794.308,-281.86 794.908,-282.86 796.508,-284.46L807.308,-295.06C813.308,-292.86 819.908,-291.86 826.708,-291.86C849.708,-291.86 870.508,-305.66 870.508,-327.26C870.508,-334.86 867.708,-341.46 863.308,-346.26L887.856,-352.675L920.468,-361.442L840.508,-359.06C836.108,-360.26 831.708,-361.06 826.708,-361.06C803.708,-361.06 782.908,-347.46 782.908,-325.86C782.908,-313.66 789.508,-304.46 799.108,-298.86L787.108,-287.06C781.508,-281.66 778.908,-278.06 778.908,-272.86C778.908,-263.06 789.308,-260.26 803.708,-259.46C787.708,-255.06 776.708,-245.26 776.708,-234.46C776.708,-215.86 797.308,-209.06 818.908,-209.06ZM828.308,-299.66C813.908,-299.66 803.308,-311.86 803.308,-329.46C803.308,-344.06 812.708,-353.26 825.108,-353.26C839.508,-353.26 850.108,-341.06 850.108,-323.46C850.108,-308.86 840.708,-299.66 828.308,-299.66ZM796.108,-236.26C796.108,-247.66 807.308,-259.06 823.908,-259.06L850.108,-259.06C862.308,-259.06 868.108,-254.26 868.108,-246.66C868.108,-229.86 844.708,-218.66 822.708,-218.66C808.108,-218.66 796.108,-224.46 796.108,-236.26Z" style="fill:rgb(231,229,219);fill-rule:nonzero;"/>
                <path d="M885.308,-259.06L940.308,-259.06L940.308,-260.06L920.508,-269.66L920.508,-336.66C927.108,-341.06 933.708,-343.26 940.308,-343.26C944.908,-343.26 949.708,-342.26 954.508,-340.26L954.908,-340.46L954.908,-361.06C939.908,-361.06 928.508,-353.06 920.508,-344.46L920.508,-361.46L886.908,-353.46L886.908,-352.46L901.508,-345.46L901.508,-269.66L885.308,-260.06L885.308,-259.06Z" style="fill:rgb(231,229,219);fill-rule:nonzero;"/>
                <path d="M1016.71,-329.06L1016.71,-318.86L991.108,-312.86C967.708,-307.46 957.508,-298.46 957.508,-284.26C957.508,-268.46 970.908,-257.06 987.108,-257.06C998.708,-257.06 1009.71,-264.26 1016.71,-272.26L1016.71,-257.66L1050.31,-265.66L1050.31,-266.66L1035.71,-273.66L1035.71,-331.26C1035.71,-352.06 1020.91,-361.06 999.108,-361.06C987.108,-361.06 973.108,-357.86 960.908,-354.26L959.908,-326.46L960.908,-326.46C971.708,-343.06 984.108,-352.86 997.708,-352.86C1009.31,-352.86 1016.71,-344.66 1016.71,-329.06ZM977.708,-286.26C977.708,-295.86 983.908,-302.86 995.908,-305.66L1016.71,-310.46L1016.71,-279.46C1008.51,-273.66 1000.91,-270.26 993.708,-270.26C984.308,-270.26 977.708,-276.86 977.708,-286.26Z" style="fill:rgb(231,229,219);fill-rule:nonzero;"/>
                <path d="M1046.11,-211.06L1101.11,-211.06L1101.11,-212.06L1081.31,-221.66L1081.31,-261.46C1088.91,-258.46 1095.71,-257.06 1103.51,-257.06C1133.11,-257.06 1156.31,-279.26 1156.31,-312.06C1156.31,-339.26 1138.51,-361.06 1112.91,-361.06C1099.51,-361.06 1089.11,-353.86 1081.31,-346.86L1081.31,-361.46L1047.71,-353.46L1047.71,-352.46L1062.31,-345.46L1062.31,-221.66L1046.11,-212.06L1046.11,-211.06ZM1106.31,-265.86C1096.11,-265.86 1088.31,-270.66 1081.31,-280.26L1081.31,-338.66C1089.51,-344.46 1097.91,-347.86 1104.71,-347.86C1124.31,-347.86 1135.91,-329.66 1135.91,-307.06C1135.91,-281.66 1123.31,-265.86 1106.31,-265.86Z" style="fill:rgb(231,229,219);fill-rule:nonzero;"/>
                <path d="M1155.31,-259.06L1206.71,-259.06L1206.71,-260.06L1190.51,-269.66L1190.51,-338.66C1200.11,-345.26 1208.11,-347.86 1214.91,-347.86C1226.71,-347.86 1231.91,-340.66 1231.91,-327.46L1231.91,-269.66L1215.71,-260.06L1215.71,-259.06L1267.11,-259.06L1267.11,-260.06L1250.91,-269.66L1250.91,-330.66C1250.91,-348.46 1239.91,-361.06 1222.71,-361.06C1211.11,-361.06 1200.11,-355.46 1190.51,-346.86L1190.51,-415.06L1156.91,-407.06L1156.91,-406.06L1171.51,-399.06L1171.51,-269.66L1155.31,-260.06L1155.31,-259.06Z" style="fill:rgb(231,229,219);fill-rule:nonzero;"/>
            </g>
        </g>
    </g>
</svg>
