<svg width="256" height="256" viewBox="0 0 256 256" xmlns="http://www.w3.org/2000/svg" aria-hidden="true">
  <rect fill="#FB651E" width="256" height="256" />
  <path
    fill="#FFFFFF"
    d="M119.374 144.746L75.433 62.432h20.081l25.848 52.092c.398.928.862 1.889 1.392 2.883.53.994.994 2.022 1.392 3.082.265.398.464.762.596 1.094.133.331.265.629.398.895.662 1.326 1.259 2.618 1.789 3.877.53 1.26.994 2.419 1.392 3.48 1.06-2.253 2.22-4.672 3.479-7.257 1.26-2.585 2.552-5.269 3.878-8.053l26.245-52.093h18.69l-44.338 83.308v53.087h-16.9v-54.081z"
  />
</svg>
